<svg version="1.1" xmlns="http://www.w3.org/2000/svg" xmlns:xlink="http://www.w3.org/1999/xlink">
  <defs>
    <symbol id="icon-check" viewBox="0 0 24 24">
      <path d="M9 16.172l10.594-10.594 1.406 1.406-12 12-5.578-5.578 1.406-1.406z"></path>
    </symbol>

    <symbol id="icon-close" viewBox="0 0 24 24">
      <path d="M18.984 6.422l-5.578 5.578 5.578 5.578-1.406 1.406-5.578-5.578-5.578 5.578-1.406-1.406 5.578-5.578-5.578-5.578 1.406-1.406 5.578 5.578 5.578-5.578z"></path>
    </symbol>

    <symbol id="icon-chevron-up" viewBox="0 0 768 768">
      <path d="M598.4 457.6l-192-192c-12.8-12.8-32-12.8-44.8 0l-192 192c-12.8 12.8-12.8 32 0 44.8s32 12.8 44.8 0L384 332.8l169.6 169.6c6.4 6.4 16 9.6 22.4 9.6s16-3.2 22.4-9.6c12.8-12.8 12.8-32 0-44.8z"/>
    </symbol>

    <symbol id="icon-chevron-down" viewBox="0 0 768 768">
      <path d="M598.4 265.6c-12.8-12.8-32-12.8-44.8 0L384 435.2 214.4 265.6c-12.8-12.8-32-12.8-44.8 0s-12.8 32 0 44.8l192 192c6.4 6.4 16 9.6 22.4 9.6s16-3.2 22.4-9.6l192-192c12.8-12.8 12.8-32 0-44.8z"/>
    </symbol>
  </defs>
</svg>
